<svg viewBox="0 0 24 24" width="24" height="24" xmlns="http://www.w3.org/2000/svg">
  <path d="M16.365 1.43c0 1.14-.43 2.225-1.207 3.11-.797.895-1.9 1.42-2.998 1.34-.094-1.1.352-2.245 1.128-3.06.797-.88 2.025-1.5 3.078-1.39zM20.393 23.31c-.77.853-1.448 1.702-2.557 1.696-1.08-.01-1.434-.69-2.672-.69-1.24 0-1.64.68-2.668.7-1.095.015-1.894-.92-2.66-1.77-1.447-1.578-2.575-3.83-2.62-6.032-.04-2.462 1-4.57 2.53-5.776.777-.61 1.76-.977 2.773-.99 1.09-.01 2.12.73 2.72.73.593 0 1.822-.898 3.08-.77.524.03 1.988.206 2.92 1.537-.077.05-1.75 1.023-1.73 3.06.022 2.437 2.19 3.24 2.22 3.26-.018.048-.344 1.19-1.133 2.34zM13.376 12.34c-.57.69-1.12 1.297-1.8 1.28-.775-.017-1.01-.46-1.887-.46-.865 0-1.12.452-1.91.47-.6.016-1.14-.594-1.7-1.267-1.2-1.43-2.07-3.62-2.12-5.79-.05-2.083.557-3.676 1.68-4.824.81-.83 1.88-1.28 3.038-1.28.87 0 1.617.476 2.117.476.495 0 1.43-.514 2.38-.45.88.06 2.006.604 2.75 1.555-1.1.47-1.78 1.19-2.18 2.22-.593 1.483.01 3.126.95 4.074z"/>
</svg>

